<svg xmlns="http://www.w3.org/2000/svg" width="980" height="360" viewBox="0 0 980 360" role="img" aria-label="MoE Top-k 路由图">
  <rect width="980" height="360" fill="#fffdf8"/>
  <defs><marker id="c" markerWidth="10" markerHeight="10" refX="7" refY="3" orient="auto"><path d="M0,0 L0,6 L8,3 z" fill="#c15f3c"/></marker></defs>
  <text x="34" y="45" font-family="PingFang SC, sans-serif" font-size="26" font-weight="800" fill="#20242a">MoE：每个 token 只激活少数专家</text>
  <g font-family="PingFang SC, sans-serif" font-size="15" font-weight="700">
    <rect x="55" y="145" width="115" height="58" rx="9" fill="#fbf4ee" stroke="#c15f3c"/><text x="88" y="180" fill="#492011">Token x</text>
    <rect x="235" y="125" width="130" height="98" rx="9" fill="#fff7ed" stroke="#b45309"/><text x="272" y="162" fill="#7c2d12">Gate</text><text x="260" y="190" fill="#7c2d12">Top-k</text>
    <rect x="445" y="70" width="130" height="54" rx="9" fill="#f8fafc" stroke="#60755d"/><text x="480" y="104" fill="#39413e">Expert 1</text>
    <rect x="445" y="145" width="130" height="54" rx="9" fill="#fbf4ee" stroke="#c15f3c"/><text x="480" y="179" fill="#492011">Expert 2</text>
    <rect x="445" y="220" width="130" height="54" rx="9" fill="#f8fafc" stroke="#60755d"/><text x="480" y="254" fill="#39413e">Expert N</text>
    <rect x="650" y="145" width="145" height="58" rx="9" fill="#fff7ed" stroke="#b45309"/><text x="678" y="180" fill="#7c2d12">Weighted Sum</text>
    <rect x="850" y="145" width="90" height="58" rx="9" fill="#20242a"/><text x="885" y="180" fill="#fffdf8">y</text>
  </g>
  <g stroke="#c15f3c" stroke-width="2.4" fill="none" marker-end="url(#c)">
    <path d="M170 174 H235"/><path d="M365 174 C400 130, 410 98, 445 98"/>
    <path d="M365 174 H445"/><path d="M365 174 C400 215, 410 248, 445 248"/>
    <path d="M575 98 C610 110, 620 154, 650 174"/><path d="M575 174 H650"/><path d="M575 248 C610 238, 620 196, 650 174"/><path d="M795 174 H850"/>
  </g>
  <text x="64" y="315" font-family="PingFang SC, sans-serif" font-size="15" fill="#66706c">高频追问：总参数量与激活参数量不同；负载均衡损失用于避免所有 token 挤向少数 expert。</text>
</svg>