<svg xmlns="http://www.w3.org/2000/svg" width="980" height="360" viewBox="0 0 980 360" role="img" aria-label="RAG 与 Agent 系统链路图">
  <rect width="980" height="360" fill="#fffdf8"/>
  <defs><marker id="b" markerWidth="10" markerHeight="10" refX="7" refY="3" orient="auto"><path d="M0,0 L0,6 L8,3 z" fill="#0f766e"/></marker></defs>
  <text x="34" y="45" font-family="PingFang SC, sans-serif" font-size="26" font-weight="800" fill="#20242a">RAG + Agent 生产链路</text>
  <g font-family="PingFang SC, sans-serif" font-size="15" font-weight="700">
    <rect x="45" y="105" width="120" height="64" rx="9" fill="#f2fbf7" stroke="#0f766e"/><text x="77" y="143" fill="#0b4f4a">Query</text>
    <rect x="220" y="70" width="130" height="64" rx="9" fill="#fff7ed" stroke="#b45309"/><text x="250" y="108" fill="#7c2d12">Rewrite</text>
    <rect x="220" y="175" width="130" height="64" rx="9" fill="#fff7ed" stroke="#b45309"/><text x="245" y="213" fill="#7c2d12">Retrieve</text>
    <rect x="410" y="125" width="130" height="64" rx="9" fill="#f8fafc" stroke="#60755d"/><text x="442" y="163" fill="#39413e">Rerank</text>
    <rect x="600" y="125" width="130" height="64" rx="9" fill="#f2fbf7" stroke="#0f766e"/><text x="630" y="163" fill="#0b4f4a">Context</text>
    <rect x="790" y="80" width="130" height="64" rx="9" fill="#20242a"/><text x="830" y="118" fill="#fffdf8">LLM</text>
    <rect x="790" y="195" width="130" height="64" rx="9" fill="#f8fafc" stroke="#60755d"/><text x="832" y="233" fill="#39413e">Tools</text>
  </g>
  <g stroke="#0f766e" stroke-width="2.4" fill="none" marker-end="url(#b)">
    <path d="M165 137 C190 137, 190 102, 220 102"/><path d="M165 137 C190 137, 190 207, 220 207"/>
    <path d="M350 102 C385 102, 385 157, 410 157"/><path d="M350 207 C385 207, 385 157, 410 157"/>
    <path d="M540 157 H600"/><path d="M730 157 C760 157, 760 112, 790 112"/><path d="M855 144 V195"/>
  </g>
  <text x="64" y="300" font-family="PingFang SC, sans-serif" font-size="15" fill="#66706c">高频追问：召回错误、重排失败、上下文过长、工具越权、评测闭环缺失。</text>
</svg>